<svg xmlns="http://www.w3.org/2000/svg" viewBox="0 0 941.07 754.64"><defs><style>.cls-1{fill:#b0b1b1;}.cls-2{fill:#cccccb;}.cls-29,.cls-3{fill:none;stroke-width:7px;}.cls-24,.cls-3,.cls-30,.cls-4{stroke:#78d2f7;}.cls-24,.cls-25,.cls-27,.cls-28,.cls-29,.cls-3,.cls-30,.cls-4{stroke-linecap:round;stroke-miterlimit:10;}.cls-27,.cls-28,.cls-4{fill:#636466;}.cls-24,.cls-25,.cls-27,.cls-28,.cls-30,.cls-4{stroke-width:11px;}.cls-5{fill:#78d2f7;}.cls-6{fill:#d6b627;}.cls-7{fill:#ffde17;}.cls-8{fill:#e8e8e8;}.cls-9{fill:#e0e0e0;}.cls-10{fill:#dcdbdb;}.cls-11{fill:#787878;opacity:0.1;}.cls-12{font-size:12px;font-family:MyriadPro-Regular, Myriad Pro;}.cls-12,.cls-24,.cls-25{fill:#231f20;}.cls-13{letter-spacing:0em;}.cls-14{letter-spacing:0.02em;}.cls-15{letter-spacing:0em;}.cls-16{letter-spacing:-0.01em;}.cls-17{letter-spacing:-0.01em;}.cls-18{letter-spacing:-0.01em;}.cls-19{letter-spacing:-0.01em;}.cls-20{letter-spacing:0.02em;}.cls-21{letter-spacing:0em;}.cls-22{letter-spacing:0em;}.cls-23{letter-spacing:1.38em;}.cls-25,.cls-27,.cls-29{stroke:#c2e8fb;}.cls-26{fill:#c2e8fb;}.cls-28{stroke:#94cef0;}.cls-30{fill:#6495ba;}</style></defs><title>icons</title><g id="Clear-day"><circle class="cls-1" cx="301.39" cy="628.33" r="42.36"/><circle class="cls-2" cx="301.67" cy="629.75" r="42.36"/><circle class="cls-1" cx="320.6" cy="615.67" r="6.5"/><circle class="cls-2" cx="320.6" cy="616.57" r="6.5"/><circle class="cls-1" cx="279.32" cy="631.79" r="9.88"/><circle class="cls-2" cx="279.32" cy="633.15" r="9.88"/><circle class="cls-1" cx="294.42" cy="605.63" r="5.65"/><circle class="cls-2" cx="294.42" cy="606.41" r="5.65"/><circle class="cls-1" cx="312.54" cy="652.1" r="3.39"/><circle class="cls-2" cx="312.54" cy="652.56" r="3.39"/><circle class="cls-1" cx="307.29" cy="630.28" r="2.54"/><circle class="cls-2" cx="307.29" cy="630.63" r="2.54"/><path class="cls-3" d="M401.9,746.09l27.67,0c-3,0,6.76.73,9.79-6s-2-12-2.21-12.21-5.31-5.14-11.95-1.95a10.69,10.69,0,0,0-5.78,7.24" transform="translate(-77.27 -281.47)"/><path class="cls-3" d="M449.65,744.55a10.72,10.72,0,0,1,5.79-7.24c6.64-3.2,11.68,1.75,11.94,1.94s5.24,5.45,2.22,12.22-12.82,6.06-9.79,6l-74.34.17" transform="translate(-77.27 -281.47)"/><line class="cls-4" x1="547.33" y1="446.89" x2="604.78" y2="446.89"/><line class="cls-4" x1="623.81" y1="446.89" x2="647.33" y2="446.89"/><line class="cls-4" x1="547.33" y1="465.89" x2="579.41" y2="465.89"/><line class="cls-4" x1="597.51" y1="465.89" x2="647.33" y2="465.89"/><path class="cls-5" d="M929,480.15v-138a5.24,5.24,0,0,0-10.47,0v138a5.24,5.24,0,0,0,10.47,0Z" transform="translate(-77.27 -281.47)"/><path class="cls-5" d="M946,350.77a5.24,5.24,0,0,0-7.4,0l-14.82,14.82-14.82-14.82a5.24,5.24,0,1,0-7.41,7.4l18.32,18.32a5.75,5.75,0,0,0,7.81,0L946,358.17A5.22,5.22,0,0,0,946,350.77Z" transform="translate(-77.27 -281.47)"/><path class="cls-5" d="M901.5,471.53a5.25,5.25,0,0,0,7.41,0l14.82-14.82,14.82,14.82a5.23,5.23,0,0,0,7.4-7.4l-18.32-18.32a5.75,5.75,0,0,0-7.81,0L901.5,464.13A5.24,5.24,0,0,0,901.5,471.53Z" transform="translate(-77.27 -281.47)"/><path class="cls-5" d="M986.1,441.12l-119.51-69a5.23,5.23,0,1,0-5.24,9.06l119.51,69a5.23,5.23,0,1,0,5.24-9.06Z" transform="translate(-77.27 -281.47)"/><path class="cls-5" d="M882.55,361.71a5.24,5.24,0,0,0-3.7,6.42l5.42,20.24L864,393.8a5.23,5.23,0,1,0,2.71,10.11l25-6.71a5.16,5.16,0,0,0,3.27-2.62,5.22,5.22,0,0,0,.64-4.14l-6.71-25A5.23,5.23,0,0,0,882.55,361.71Z" transform="translate(-77.27 -281.47)"/><path class="cls-5" d="M964.9,460.59a5.24,5.24,0,0,0,3.71-6.41l-5.43-20.25,20.25-5.43a5.23,5.23,0,1,0-2.71-10.11l-25,6.71a5.76,5.76,0,0,0-3.9,6.76l6.7,25A5.24,5.24,0,0,0,964.9,460.59Z" transform="translate(-77.27 -281.47)"/><path class="cls-5" d="M980.86,372.12l-119.51,69a5.23,5.23,0,0,0,5.24,9.06l119.51-69a5.23,5.23,0,0,0-5.24-9.06Z" transform="translate(-77.27 -281.47)"/><path class="cls-5" d="M860.32,422.09A5.23,5.23,0,0,0,864,428.5l20.24,5.43-5.42,20.25A5.23,5.23,0,0,0,889,456.89l6.71-25a5.22,5.22,0,0,0-.64-4.14,5.16,5.16,0,0,0-3.27-2.62l-25-6.71A5.24,5.24,0,0,0,860.32,422.09Z" transform="translate(-77.27 -281.47)"/><path class="cls-5" d="M987.13,400.21a5.23,5.23,0,0,0-3.7-6.41l-20.25-5.43,5.43-20.24a5.24,5.24,0,1,0-10.12-2.71l-6.7,25a5.76,5.76,0,0,0,3.9,6.76l25,6.71A5.24,5.24,0,0,0,987.13,400.21Z" transform="translate(-77.27 -281.47)"/><circle class="cls-6" cx="99.92" cy="111.67" r="75"/><circle class="cls-7" cx="99.43" cy="109.16" r="75"/><path id="mediano" class="cls-2" d="M765.05,404.43a40,40,0,0,1-40,40c-11.77,0-40,.72-40,.72V404.43a40,40,0,0,1,80,0Z" transform="translate(-77.27 -281.47)"/><path id="mediano-2" data-name="mediano" class="cls-8" d="M765.05,402.43a40,40,0,0,1-40,40c-11.77,0-40,.72-40,.72V402.43a40,40,0,0,1,80,0Z" transform="translate(-77.27 -281.47)"/><path id="grande" class="cls-2" d="M627.06,390.63a55,55,0,1,1,55,55c-28.35,0-61.51-.48-61.51-.48S627.06,392.66,627.06,390.63Z" transform="translate(-77.27 -281.47)"/><path id="grande-2" data-name="grande" class="cls-9" d="M627.06,387.63a55,55,0,1,1,55,55c-28.35,0-61.51-.48-61.51-.48S627.06,389.66,627.06,387.63Z" transform="translate(-77.27 -281.47)"/><circle id="sombra_peq" data-name="sombra peq" class="cls-2" cx="544.28" cy="128.68" r="35"/><circle id="pequeño" class="cls-10" cx="543.28" cy="126.68" r="35"/><ellipse class="cls-11" cx="348.64" cy="226.29" rx="75.3" ry="1.98"/><ellipse class="cls-11" cx="99.31" cy="226.29" rx="75.3" ry="1.98"/><text class="cls-12" transform="translate(0.32 20.89)">Clea<tspan class="cls-13" x="21.59" y="0">r</tspan><tspan class="cls-14" x="25.45" y="0">-</tspan><tspan class="cls-15" x="29.35" y="0">d</tspan><tspan class="cls-16" x="36.12" y="0">a</tspan><tspan x="41.81" y="0">y</tspan></text><text class="cls-12" transform="translate(258.24 19.34)">clea<tspan class="cls-17" x="20" y="0">r</tspan><tspan x="23.87" y="0">-nigth</tspan></text><text class="cls-12" transform="translate(495.25 13.92)"><tspan class="cls-13">r</tspan><tspan x="3.86" y="0">ain</tspan></text><text class="cls-12" transform="translate(745.42 10.04)">sn<tspan class="cls-18" x="11.41" y="0">o</tspan><tspan x="17.92" y="0">w</tspan></text><text class="cls-12" transform="translate(1.87 289.65)">sleet</text><text class="cls-12" transform="translate(249.99 285.09)">wind</text><text class="cls-12" transform="translate(497.45 282.6)"><tspan class="cls-19">f</tspan><tspan x="3.35" y="0">og</tspan></text><text class="cls-12" transform="translate(749.9 280.11)">cloudy</text><text class="cls-12" transform="translate(0 547.84)">pa<tspan class="cls-20" x="12.61" y="0">r</tspan><tspan x="16.82" y="0">tl</tspan><tspan class="cls-21" x="23.63" y="0">y</tspan><tspan class="cls-14" x="29.23" y="0">-</tspan><tspan x="33.13" y="0">cloud</tspan><tspan class="cls-22" x="61.31" y="0">y</tspan><tspan class="cls-14" x="66.91" y="0">-</tspan><tspan x="70.81" y="0">d</tspan><tspan class="cls-16" x="77.58" y="0">a</tspan><tspan x="83.27" y="0">y</tspan><tspan class="cls-23" x="88.92" y="0">	</tspan></text><text class="cls-12" transform="translate(244.71 541.95)">pa<tspan class="cls-20" x="12.61" y="0">r</tspan><tspan x="16.82" y="0">tl</tspan><tspan class="cls-22" x="23.63" y="0">y</tspan><tspan class="cls-14" x="29.23" y="0">-</tspan><tspan x="33.13" y="0">cloud</tspan><tspan class="cls-22" x="61.31" y="0">y</tspan><tspan x="66.91" y="0">-nigth</tspan></text><ellipse class="cls-11" cx="596.9" cy="226.29" rx="75.3" ry="1.98"/><circle class="cls-5" cx="561.05" cy="207.62" r="5.41"/><line class="cls-24" x1="633.03" y1="207.99" x2="633.03" y2="198.95"/><circle class="cls-5" cx="633.08" cy="177.94" r="5.41"/><line class="cls-24" x1="560.99" y1="178.03" x2="560.99" y2="186.58"/><line class="cls-4" x1="597.99" y1="179.94" x2="597.99" y2="195.04"/><line class="cls-24" x1="597.99" y1="209.99" x2="597.99" y2="209.99"/><line class="cls-25" x1="633.03" y1="206.99" x2="633.03" y2="197.95"/><circle class="cls-26" cx="633.08" cy="176.94" r="5.41"/><line class="cls-25" x1="560.99" y1="177.03" x2="560.99" y2="185.58"/><circle class="cls-26" cx="561.05" cy="206.62" r="5.41"/><line class="cls-27" x1="597.99" y1="178.94" x2="597.99" y2="194.04"/><line class="cls-25" x1="597.99" y1="208.99" x2="597.99" y2="208.99"/><circle class="cls-1" cx="348.88" cy="112.93" r="75"/><circle class="cls-2" cx="348.4" cy="110.42" r="75"/><circle class="cls-1" cx="314.87" cy="135.33" r="11.5"/><circle class="cls-2" cx="314.87" cy="133.75" r="11.5"/><circle class="cls-1" cx="387.96" cy="106.81" r="17.5"/><circle class="cls-2" cx="387.96" cy="104.4" r="17.5"/><circle class="cls-1" cx="361.23" cy="153.12" r="10"/><circle class="cls-2" cx="361.23" cy="151.74" r="10"/><circle class="cls-1" cx="329.15" cy="70.85" r="6"/><circle class="cls-2" cx="329.15" cy="70.03" r="6"/><circle class="cls-1" cx="338.44" cy="109.47" r="4.5"/><circle class="cls-2" cx="338.44" cy="108.85" r="4.5"/><ellipse class="cls-11" cx="838.41" cy="226.29" rx="75.3" ry="1.98"/><path id="mediano-3" data-name="mediano" class="cls-2" d="M1018.34,686.62a42.48,42.48,0,0,1-42.48,42.48c-12.5,0-42.48.76-42.48.76V686.62a42.48,42.48,0,0,1,85,0Z" transform="translate(-77.27 -281.47)"/><path id="mediano-4" data-name="mediano" class="cls-8" d="M1018.34,684.5A42.48,42.48,0,0,1,975.86,727c-12.5,0-42.48.76-42.48.76V684.5a42.48,42.48,0,0,1,85,0Z" transform="translate(-77.27 -281.47)"/><path id="grande-3" data-name="grande" class="cls-2" d="M871.8,672a58.41,58.41,0,1,1,58.4,58.41c-30.1,0-65.31-.51-65.31-.51S871.8,674.12,871.8,672Z" transform="translate(-77.27 -281.47)"/><path id="grande-4" data-name="grande" class="cls-9" d="M871.8,668.78a58.41,58.41,0,1,1,58.4,58.41c-30.1,0-65.31-.51-65.31-.51S871.8,670.93,871.8,668.78Z" transform="translate(-77.27 -281.47)"/><circle id="sombra_peq-2" data-name="sombra peq" class="cls-2" cx="788.68" cy="411.23" r="37.17"/><circle id="pequeño-2" data-name="pequeño" class="cls-10" cx="787.62" cy="409.1" r="37.17"/><ellipse class="cls-11" cx="840.28" cy="492.92" rx="75.3" ry="1.98"/><path class="cls-26" d="M929,479.15v-138a5.24,5.24,0,0,0-10.47,0v138a5.24,5.24,0,1,0,10.47,0Z" transform="translate(-77.27 -281.47)"/><path class="cls-26" d="M946,349.77a5.24,5.24,0,0,0-7.4,0l-14.82,14.82-14.82-14.82a5.24,5.24,0,1,0-7.41,7.41l18.32,18.32a5.78,5.78,0,0,0,7.81,0L946,357.18A5.23,5.23,0,0,0,946,349.77Z" transform="translate(-77.27 -281.47)"/><path class="cls-26" d="M901.5,470.53a5.23,5.23,0,0,0,7.41,0l14.82-14.82,14.82,14.82a5.23,5.23,0,0,0,7.4-7.4l-18.32-18.32a5.75,5.75,0,0,0-7.81,0L901.5,463.13A5.24,5.24,0,0,0,901.5,470.53Z" transform="translate(-77.27 -281.47)"/><path class="cls-26" d="M986.1,440.12l-119.51-69a5.24,5.24,0,0,0-5.24,9.07l119.51,69a5.24,5.24,0,0,0,5.24-9.07Z" transform="translate(-77.27 -281.47)"/><path class="cls-26" d="M882.55,360.71a5.24,5.24,0,0,0-3.7,6.42l5.42,20.24L864,392.8a5.23,5.23,0,1,0,2.71,10.11l25-6.7a5.78,5.78,0,0,0,3.91-6.77l-6.71-25A5.24,5.24,0,0,0,882.55,360.71Z" transform="translate(-77.27 -281.47)"/><path class="cls-26" d="M964.9,459.59a5.24,5.24,0,0,0,3.71-6.41l-5.43-20.25,20.25-5.42a5.24,5.24,0,0,0-2.71-10.12l-25,6.71a5.76,5.76,0,0,0-3.9,6.76l6.7,25A5.24,5.24,0,0,0,964.9,459.59Z" transform="translate(-77.27 -281.47)"/><path class="cls-26" d="M980.86,371.12l-119.51,69a5.24,5.24,0,0,0,5.24,9.07l119.51-69a5.24,5.24,0,0,0-5.24-9.07Z" transform="translate(-77.27 -281.47)"/><path class="cls-26" d="M860.32,421.09a5.25,5.25,0,0,0,3.71,6.42l20.24,5.42-5.42,20.25A5.23,5.23,0,0,0,889,455.89l6.71-25a5.22,5.22,0,0,0-.64-4.14,5.16,5.16,0,0,0-3.27-2.62l-25-6.71A5.24,5.24,0,0,0,860.32,421.09Z" transform="translate(-77.27 -281.47)"/><path class="cls-26" d="M987.13,399.21a5.24,5.24,0,0,0-3.7-6.41l-20.25-5.43,5.43-20.24a5.24,5.24,0,1,0-10.12-2.71l-6.7,25a5.76,5.76,0,0,0,3.9,6.77l25,6.7A5.24,5.24,0,0,0,987.13,399.21Z" transform="translate(-77.27 -281.47)"/><path id="mediano-5" data-name="mediano" class="cls-2" d="M762.05,672.43a40,40,0,0,1-40,40c-11.77,0-40,.72-40,.72V672.43a40,40,0,0,1,80,0Z" transform="translate(-77.27 -281.47)"/><path id="mediano-6" data-name="mediano" class="cls-8" d="M762.05,670.43a40,40,0,0,1-40,40c-11.77,0-40,.72-40,.72V670.43a40,40,0,0,1,80,0Z" transform="translate(-77.27 -281.47)"/><path id="grande-5" data-name="grande" class="cls-2" d="M624.06,658.63a55,55,0,1,1,55,55c-28.35,0-61.51-.48-61.51-.48S624.06,660.66,624.06,658.63Z" transform="translate(-77.27 -281.47)"/><path id="grande-6" data-name="grande" class="cls-9" d="M624.06,655.63a55,55,0,1,1,55,55c-28.35,0-61.51-.48-61.51-.48S624.06,657.66,624.06,655.63Z" transform="translate(-77.27 -281.47)"/><circle id="sombra_peq-3" data-name="sombra peq" class="cls-2" cx="541.28" cy="396.68" r="35"/><circle id="pequeño-3" data-name="pequeño" class="cls-10" cx="540.28" cy="394.68" r="35"/><ellipse class="cls-11" cx="593.9" cy="494.29" rx="75.3" ry="1.98"/><line class="cls-27" x1="547.33" y1="445.9" x2="604.78" y2="445.9"/><line class="cls-27" x1="623.81" y1="445.9" x2="647.33" y2="445.9"/><line class="cls-27" x1="547.33" y1="464.9" x2="579.41" y2="464.9"/><line class="cls-27" x1="597.51" y1="464.9" x2="647.33" y2="464.9"/><path id="mediano-7" data-name="mediano" class="cls-2" d="M516.3,673.62a40,40,0,0,1-40,40c-11.77,0-40,.72-40,.72V673.62a40,40,0,1,1,80,0Z" transform="translate(-77.27 -281.47)"/><path id="mediano-8" data-name="mediano" class="cls-8" d="M516.3,671.62a40,40,0,0,1-40,40c-11.77,0-40,.72-40,.72V671.62a40,40,0,1,1,80,0Z" transform="translate(-77.27 -281.47)"/><path id="grande-7" data-name="grande" class="cls-2" d="M378.31,659.81a55,55,0,1,1,55,55c-28.35,0-61.51-.47-61.51-.47S378.31,661.84,378.31,659.81Z" transform="translate(-77.27 -281.47)"/><path id="grande-8" data-name="grande" class="cls-9" d="M378.31,656.81a55,55,0,1,1,55,55c-28.35,0-61.51-.47-61.51-.47S378.31,658.84,378.31,656.81Z" transform="translate(-77.27 -281.47)"/><circle id="sombra_peq-4" data-name="sombra peq" class="cls-2" cx="295.53" cy="397.87" r="35"/><circle id="pequeño-4" data-name="pequeño" class="cls-10" cx="294.53" cy="395.87" r="35"/><ellipse class="cls-11" cx="348.15" cy="495.47" rx="75.3" ry="1.98"/><path class="cls-28" d="M371.8,756.7" transform="translate(-77.27 -281.47)"/><path class="cls-29" d="M401.9,745.09l27.67,0c-3,0,6.76.73,9.79-6s-2-12-2.21-12.21-5.31-5.14-11.95-1.95a10.69,10.69,0,0,0-5.78,7.24" transform="translate(-77.27 -281.47)"/><path class="cls-29" d="M449.65,743.55a10.72,10.72,0,0,1,5.79-7.24c6.64-3.2,11.68,1.75,11.94,1.94s5.24,5.45,2.22,12.22-12.82,6.06-9.79,6l-74.34.17" transform="translate(-77.27 -281.47)"/><path id="mediano-9" data-name="mediano" class="cls-2" d="M267.94,673.4a40,40,0,0,1-40,40c-11.78,0-40,.72-40,.72V673.4a40,40,0,0,1,80,0Z" transform="translate(-77.27 -281.47)"/><path id="mediano-10" data-name="mediano" class="cls-8" d="M267.94,671.4a40,40,0,0,1-40,40c-11.78,0-40,.72-40,.72V671.4a40,40,0,0,1,80,0Z" transform="translate(-77.27 -281.47)"/><path id="grande-9" data-name="grande" class="cls-2" d="M129.94,659.6a55,55,0,1,1,55,55c-28.34,0-61.5-.48-61.5-.48S129.94,661.63,129.94,659.6Z" transform="translate(-77.27 -281.47)"/><path id="grande-10" data-name="grande" class="cls-9" d="M129.94,656.6a55,55,0,1,1,55,55c-28.34,0-61.5-.48-61.5-.48S129.94,658.63,129.94,656.6Z" transform="translate(-77.27 -281.47)"/><circle id="sombra_peq-5" data-name="sombra peq" class="cls-2" cx="47.17" cy="397.65" r="35"/><circle id="pequeño-5" data-name="pequeño" class="cls-10" cx="46.17" cy="395.65" r="35"/><ellipse class="cls-11" cx="99.79" cy="495.26" rx="75.3" ry="1.98"/><line class="cls-30" x1="63.88" y1="447.28" x2="63.88" y2="455.83"/><line class="cls-24" x1="135.92" y1="476.95" x2="135.92" y2="467.91"/><line class="cls-25" x1="135.92" y1="476.37" x2="135.92" y2="467.33"/><line class="cls-25" x1="63.88" y1="446.87" x2="63.88" y2="455.42"/><line class="cls-24" x1="100.88" y1="455.91" x2="100.88" y2="471.01"/><line class="cls-27" x1="100.88" y1="454.91" x2="100.88" y2="470.01"/><path class="cls-5" d="M141.6,761.59V749.91a.45.45,0,0,0-.89,0v11.68a.45.45,0,0,0,.89,0Z" transform="translate(-77.27 -281.47)"/><path class="cls-5" d="M143,750.64a.44.44,0,0,0-.62,0l-1.26,1.25-1.25-1.25a.45.45,0,0,0-.63,0,.44.44,0,0,0,0,.62l1.55,1.56a.51.51,0,0,0,.66,0l1.55-1.56A.42.42,0,0,0,143,750.64Z" transform="translate(-77.27 -281.47)"/><path class="cls-5" d="M139.27,760.86a.45.45,0,0,0,.63,0l1.25-1.26,1.26,1.26a.44.44,0,0,0,.62,0,.43.43,0,0,0,0-.63l-1.55-1.55a.48.48,0,0,0-.66,0l-1.55,1.55A.45.45,0,0,0,139.27,760.86Z" transform="translate(-77.27 -281.47)"/><path class="cls-5" d="M146.43,758.28l-10.11-5.84a.45.45,0,0,0-.61.17.44.44,0,0,0,.16.6L146,759.05a.44.44,0,0,0,.6-.16A.45.45,0,0,0,146.43,758.28Z" transform="translate(-77.27 -281.47)"/><path class="cls-5" d="M137.67,751.56a.46.46,0,0,0-.32.55l.46,1.71-1.71.46a.43.43,0,0,0-.31.54.44.44,0,0,0,.54.32l2.12-.57a.46.46,0,0,0,.27-.22.43.43,0,0,0,.06-.35l-.57-2.12A.45.45,0,0,0,137.67,751.56Z" transform="translate(-77.27 -281.47)"/><path class="cls-5" d="M144.64,759.93a.44.44,0,0,0,.31-.54l-.46-1.71,1.71-.46a.44.44,0,1,0-.22-.86l-2.12.57a.42.42,0,0,0-.28.22.43.43,0,0,0-.05.35l.56,2.12A.45.45,0,0,0,144.64,759.93Z" transform="translate(-77.27 -281.47)"/><path class="cls-5" d="M146,752.44l-10.12,5.84a.45.45,0,0,0-.16.61.45.45,0,0,0,.61.16l10.11-5.84a.43.43,0,0,0,.16-.6A.44.44,0,0,0,146,752.44Z" transform="translate(-77.27 -281.47)"/><path class="cls-5" d="M135.79,756.67a.44.44,0,0,0,.31.55l1.71.46-.46,1.71a.45.45,0,0,0,.86.23l.57-2.12a.43.43,0,0,0-.06-.35.4.4,0,0,0-.27-.22l-2.12-.57A.44.44,0,0,0,135.79,756.67Z" transform="translate(-77.27 -281.47)"/><path class="cls-5" d="M146.52,754.82a.45.45,0,0,0-.32-.54l-1.71-.46.46-1.71a.45.45,0,1,0-.86-.23l-.56,2.12a.43.43,0,0,0,.05.35.48.48,0,0,0,.28.22l2.12.57A.45.45,0,0,0,146.52,754.82Z" transform="translate(-77.27 -281.47)"/><path class="cls-26" d="M141.6,761.32V749.64a.45.45,0,0,0-.89,0v11.68a.45.45,0,0,0,.89,0Z" transform="translate(-77.27 -281.47)"/><path class="cls-26" d="M143,750.37a.44.44,0,0,0-.62,0l-1.26,1.26-1.25-1.26a.45.45,0,1,0-.63.63l1.55,1.55a.48.48,0,0,0,.66,0L143,751A.43.43,0,0,0,143,750.37Z" transform="translate(-77.27 -281.47)"/><path class="cls-26" d="M139.27,760.59a.45.45,0,0,0,.63,0l1.25-1.25,1.26,1.25a.44.44,0,0,0,.62,0,.43.43,0,0,0,0-.63l-1.55-1.55a.48.48,0,0,0-.66,0L139.27,760A.45.45,0,0,0,139.27,760.59Z" transform="translate(-77.27 -281.47)"/><path class="cls-26" d="M146.43,758l-10.11-5.84a.44.44,0,1,0-.45.76L146,758.78a.44.44,0,0,0,.44-.76Z" transform="translate(-77.27 -281.47)"/><path class="cls-26" d="M137.67,751.3a.44.44,0,0,0-.32.54l.46,1.71-1.71.46a.44.44,0,0,0-.31.54.44.44,0,0,0,.54.32l2.12-.57a.5.5,0,0,0,.33-.57l-.57-2.12A.43.43,0,0,0,137.67,751.3Z" transform="translate(-77.27 -281.47)"/><path class="cls-26" d="M144.64,759.66a.44.44,0,0,0,.31-.54l-.46-1.71,1.71-.46a.45.45,0,0,0,.32-.54.45.45,0,0,0-.54-.32l-2.12.57a.45.45,0,0,0-.28.22.43.43,0,0,0-.05.35l.56,2.12A.44.44,0,0,0,144.64,759.66Z" transform="translate(-77.27 -281.47)"/><path class="cls-26" d="M146,752.18,135.87,758a.44.44,0,1,0,.45.76l10.11-5.84a.44.44,0,1,0-.44-.76Z" transform="translate(-77.27 -281.47)"/><path class="cls-26" d="M135.79,756.41a.43.43,0,0,0,.31.54l1.71.46-.46,1.71a.44.44,0,0,0,.32.54.43.43,0,0,0,.54-.31l.57-2.12a.5.5,0,0,0-.33-.57l-2.12-.57A.44.44,0,0,0,135.79,756.41Z" transform="translate(-77.27 -281.47)"/><path class="cls-26" d="M146.52,754.55a.45.45,0,0,0-.32-.54l-1.71-.46.46-1.71a.45.45,0,0,0-.86-.23l-.56,2.12a.43.43,0,0,0,.05.35.45.45,0,0,0,.28.22l2.12.57A.45.45,0,0,0,146.52,754.55Z" transform="translate(-77.27 -281.47)"/><path class="cls-5" d="M213.63,736.35V724.67a.45.45,0,0,0-.89,0v11.68a.45.45,0,0,0,.89,0Z" transform="translate(-77.27 -281.47)"/><path class="cls-5" d="M215.07,725.4a.45.45,0,0,0-.63,0l-1.25,1.25-1.26-1.25a.44.44,0,0,0-.62,0,.43.43,0,0,0,0,.63l1.55,1.55a.48.48,0,0,0,.66,0l1.55-1.55A.45.45,0,0,0,215.07,725.4Z" transform="translate(-77.27 -281.47)"/><path class="cls-5" d="M211.31,735.62a.44.44,0,0,0,.62,0l1.26-1.26,1.25,1.26a.45.45,0,1,0,.63-.63l-1.55-1.55a.48.48,0,0,0-.66,0L211.31,735A.43.43,0,0,0,211.31,735.62Z" transform="translate(-77.27 -281.47)"/><path class="cls-5" d="M218.47,733.05l-10.12-5.84a.43.43,0,0,0-.6.16.44.44,0,0,0,.16.6L218,733.81a.45.45,0,0,0,.61-.16A.44.44,0,0,0,218.47,733.05Z" transform="translate(-77.27 -281.47)"/><path class="cls-5" d="M209.7,726.33a.44.44,0,0,0-.31.54l.46,1.71-1.71.46a.45.45,0,0,0-.32.54.46.46,0,0,0,.55.32l2.11-.57a.45.45,0,0,0,.28-.22.43.43,0,0,0,.05-.35l-.56-2.12A.44.44,0,0,0,209.7,726.33Z" transform="translate(-77.27 -281.47)"/><path class="cls-5" d="M216.67,734.69a.44.44,0,0,0,.32-.54l-.46-1.71,1.71-.46a.44.44,0,0,0,.31-.54.44.44,0,0,0-.54-.32l-2.12.57a.5.5,0,0,0-.33.57l.57,2.12A.43.43,0,0,0,216.67,734.69Z" transform="translate(-77.27 -281.47)"/><path class="cls-5" d="M218,727.21l-10.11,5.84a.44.44,0,0,0,.44.76L218.47,728a.44.44,0,1,0-.45-.76Z" transform="translate(-77.27 -281.47)"/><path class="cls-5" d="M207.82,731.44a.45.45,0,0,0,.32.54l1.71.46-.46,1.71a.45.45,0,0,0,.86.23l.56-2.12a.43.43,0,0,0-.05-.35.45.45,0,0,0-.28-.22l-2.11-.57A.46.46,0,0,0,207.82,731.44Z" transform="translate(-77.27 -281.47)"/><path class="cls-5" d="M218.55,729.58a.43.43,0,0,0-.31-.54l-1.71-.46.46-1.71a.44.44,0,0,0-.32-.54.43.43,0,0,0-.54.31l-.57,2.12a.5.5,0,0,0,.33.57l2.12.57A.44.44,0,0,0,218.55,729.58Z" transform="translate(-77.27 -281.47)"/><path class="cls-26" d="M213.63,736.08V724.4a.45.45,0,0,0-.89,0v11.68a.45.45,0,0,0,.89,0Z" transform="translate(-77.27 -281.47)"/><path class="cls-26" d="M215.07,725.13a.45.45,0,0,0-.63,0l-1.25,1.26-1.26-1.26a.44.44,0,0,0-.62,0,.43.43,0,0,0,0,.63l1.55,1.55a.48.48,0,0,0,.66,0l1.55-1.55A.45.45,0,0,0,215.07,725.13Z" transform="translate(-77.27 -281.47)"/><path class="cls-26" d="M211.31,735.35a.44.44,0,0,0,.62,0l1.26-1.25,1.25,1.25a.45.45,0,1,0,.63-.63l-1.55-1.55a.51.51,0,0,0-.66,0l-1.55,1.55A.43.43,0,0,0,211.31,735.35Z" transform="translate(-77.27 -281.47)"/><path class="cls-26" d="M218.47,732.78l-10.12-5.84a.44.44,0,0,0-.6.16.45.45,0,0,0,.16.61L218,733.55a.45.45,0,0,0,.61-.17A.44.44,0,0,0,218.47,732.78Z" transform="translate(-77.27 -281.47)"/><path class="cls-26" d="M209.7,726.06a.44.44,0,0,0-.31.54l.46,1.71-1.71.46a.45.45,0,1,0,.23.86l2.11-.57a.42.42,0,0,0,.28-.22.43.43,0,0,0,.05-.35l-.56-2.12A.44.44,0,0,0,209.7,726.06Z" transform="translate(-77.27 -281.47)"/><path class="cls-26" d="M216.67,734.43a.46.46,0,0,0,.32-.55l-.46-1.71,1.71-.46a.43.43,0,0,0,.31-.54.44.44,0,0,0-.54-.32l-2.12.57a.46.46,0,0,0-.27.22.43.43,0,0,0-.06.35l.57,2.12A.45.45,0,0,0,216.67,734.43Z" transform="translate(-77.27 -281.47)"/><path class="cls-26" d="M218,726.94l-10.11,5.84a.44.44,0,0,0,.44.77l10.12-5.84a.45.45,0,0,0,.16-.61A.45.45,0,0,0,218,726.94Z" transform="translate(-77.27 -281.47)"/><path class="cls-26" d="M207.82,731.17a.45.45,0,0,0,.32.54l1.71.46-.46,1.71a.45.45,0,1,0,.86.23l.56-2.12a.43.43,0,0,0-.05-.35.48.48,0,0,0-.28-.22l-2.11-.57A.46.46,0,0,0,207.82,731.17Z" transform="translate(-77.27 -281.47)"/><path class="cls-26" d="M218.55,729.32a.44.44,0,0,0-.31-.55l-1.71-.46.46-1.71a.44.44,0,0,0-.32-.54.43.43,0,0,0-.54.31l-.57,2.12a.43.43,0,0,0,.06.35.4.4,0,0,0,.27.22l2.12.57A.44.44,0,0,0,218.55,729.32Z" transform="translate(-77.27 -281.47)"/><circle class="cls-6" cx="62.22" cy="630.76" r="42.36"/><circle class="cls-7" cx="61.95" cy="629.34" r="42.36"/><path id="mediano-11" data-name="mediano" class="cls-2" d="M262.66,958a37.88,37.88,0,0,1-37.89,37.88c-11.15,0-37.88.68-37.88.68V958a37.89,37.89,0,0,1,75.77,0Z" transform="translate(-77.27 -281.47)"/><path id="mediano-12" data-name="mediano" class="cls-8" d="M262.66,956.07A37.88,37.88,0,0,1,224.77,994c-11.15,0-37.88.68-37.88.68V956.07a37.89,37.89,0,1,1,75.77,0Z" transform="translate(-77.27 -281.47)"/><path id="grande-11" data-name="grande" class="cls-2" d="M132,944.89A52.09,52.09,0,1,1,184.06,997c-26.85,0-58.26-.46-58.26-.46S132,946.81,132,944.89Z" transform="translate(-77.27 -281.47)"/><path id="grande-12" data-name="grande" class="cls-9" d="M132,942.05a52.09,52.09,0,1,1,52.09,52.09c-26.85,0-58.26-.46-58.26-.46S132,944,132,942.05Z" transform="translate(-77.27 -281.47)"/><circle id="sombra_peq-6" data-name="sombra peq" class="cls-2" cx="49.48" cy="681.91" r="33.15"/><circle id="pequeño-6" data-name="pequeño" class="cls-10" cx="48.53" cy="680.01" r="33.15"/><ellipse class="cls-11" cx="100.39" cy="752.66" rx="75.3" ry="1.98"/><path id="mediano-13" data-name="mediano" class="cls-2" d="M507.42,957.8a37.88,37.88,0,0,1-37.88,37.88c-11.15,0-37.88.68-37.88.68V957.8a37.88,37.88,0,1,1,75.76,0Z" transform="translate(-77.27 -281.47)"/><path id="mediano-14" data-name="mediano" class="cls-8" d="M507.42,955.9a37.89,37.89,0,0,1-37.88,37.89c-11.15,0-37.88.68-37.88.68V955.9a37.88,37.88,0,0,1,75.76,0Z" transform="translate(-77.27 -281.47)"/><path id="grande-13" data-name="grande" class="cls-2" d="M376.73,944.72a52.09,52.09,0,1,1,52.09,52.09c-26.84,0-58.25-.45-58.25-.45S376.73,946.65,376.73,944.72Z" transform="translate(-77.27 -281.47)"/><path id="grande-14" data-name="grande" class="cls-9" d="M376.73,941.88A52.09,52.09,0,1,1,428.82,994c-26.84,0-58.25-.45-58.25-.45S376.73,943.81,376.73,941.88Z" transform="translate(-77.27 -281.47)"/><circle id="sombra_peq-7" data-name="sombra peq" class="cls-2" cx="294.25" cy="681.74" r="33.15"/><circle id="pequeño-7" data-name="pequeño" class="cls-10" cx="293.3" cy="679.85" r="33.15"/><ellipse class="cls-11" cx="345.15" cy="752.49" rx="75.3" ry="1.98"/></g></svg>