<svg xmlns="http://www.w3.org/2000/svg" viewBox="0 0 477 472.11"><defs><style>.cls-1{fill:#d6b4f4;}.cls-2{fill:#d6e5f4;}</style></defs><title>rain_icon</title><g id="Layer_2" data-name="Layer 2"><g id="Layer_1-2" data-name="Layer 1"><path class="cls-1" d="M372.56,76.12a152.73,152.73,0,0,0-271.42,50.14c-1.69-.09-3.39-.14-5.1-.14A96,96,0,0,0,96,318.2H355.35A121.65,121.65,0,0,0,372.56,76.12Z"/><path class="cls-2" d="M372.56,63.32a152.73,152.73,0,0,0-271.42,50.14c-1.69-.09-3.39-.13-5.1-.13a96,96,0,0,0,0,192.08H355.35A121.66,121.66,0,0,0,372.56,63.32Z"/><rect class="cls-1" x="103.39" y="342.38" width="14" height="133" transform="translate(183.14 -8.34) rotate(25)"/><rect class="cls-1" x="333.61" y="342.03" width="14" height="133" transform="translate(204.56 -105.67) rotate(25)"/><rect class="cls-1" x="217.61" y="342.03" width="14" height="133" transform="translate(193.7 -56.65) rotate(25)"/><rect class="cls-2" x="102.39" y="339.38" width="14" height="133" transform="translate(181.78 -8.2) rotate(25)"/><rect class="cls-2" x="332.61" y="339.03" width="14" height="133" transform="translate(203.2 -105.53) rotate(25)"/><rect class="cls-2" x="216.61" y="339.03" width="14" height="133" transform="translate(192.33 -56.51) rotate(25)"/></g></g></svg>